<svg version="1.1" id="icons" xmlns="http://www.w3.org/2000/svg" xmlns:xlink="http://www.w3.org/1999/xlink" x="0px" y="0px"
	 viewBox="0 0 24 27.110001" style="enable-background:new 0 0 24 27.110001;" xml:space="preserve">
<path class="default" d="M13.203613,24.226074c-0.405273,0-0.757812-0.27832-0.851562-0.67334L8.528809,7.401367l-2.314941,8.716309
	c-0.102051,0.383301-0.44873,0.650391-0.845703,0.650391H1.025391c-0.483398,0-0.875-0.391602-0.875-0.875
	s0.391602-0.875,0.875-0.875h3.669922L7.731934,3.584473c0.103027-0.387207,0.46582-0.665527,0.857422-0.650391
	c0.401367,0.005371,0.747559,0.283203,0.839844,0.67334l3.737305,15.789062l2.061523-9.495117
	c0.07959-0.367676,0.385254-0.642578,0.758789-0.684082c0.368164-0.035645,0.731934,0.160156,0.890137,0.501465l2.171875,4.685547
	h3.925781c0.483398,0,0.875,0.391602,0.875,0.875s-0.391602,0.875-0.875,0.875h-4.484375
	c-0.34082,0-0.650391-0.197754-0.793945-0.506836l-1.311035-2.828125l-2.32666,10.717285
	c-0.086426,0.399414-0.437988,0.685547-0.84668,0.689453C13.208984,24.226074,13.206055,24.226074,13.203613,24.226074z"/>
</svg>
