<svg version="1.1" id="icons" xmlns="http://www.w3.org/2000/svg" xmlns:xlink="http://www.w3.org/1999/xlink" x="0px" y="0px"
	 viewBox="0 0 24 27.110001" style="enable-background:new 0 0 24 27.110001;" xml:space="preserve">
<style type="text/css">
	.st0{fill:none;stroke:#000000;stroke-width:1.25;stroke-miterlimit:10;}
	.st1{stroke:#000000;stroke-miterlimit:10;}
	.st2{stroke:#000000;stroke-width:1.25;stroke-miterlimit:10;}
</style>
<g class="default">
	<g class="default">
		<path class="default" d="M21.684595,10.513115c-0.305275,2.465508-4.827833,4.501875-10.162443,4.50252
			C5.997874,15.01499,1.330236,12.832665,1.330236,10.249853c0-2.582755,4.667637-4.765079,10.191916-4.765724
			c1.556894,0.000176,3.040137,0.178594,4.375665,0.485449c0.054257-0.453516,0.167226-0.886113,0.35086-1.285313
			c-1.435723-0.33375-3.029532-0.522305-4.724239-0.522656V4.161551c0,0-0.001524,0.000059-0.002285,0.000059
			c0,0-0.001465-0.000059-0.002227-0.000059V4.16161C5.064358,4.162957,0.007658,6.837118,0.007658,10.249853
			s5.0567,6.086954,11.512267,6.088301v0.000059c0.000762,0,0.001523-0.000059,0.001523-0.000059
			c0.001465,0,0.002227,0.000059,0.002227,0.000059l0.000762-0.000059c6.455626-0.001347,11.512266-2.675567,11.512266-6.088301
			c0-0.176309-0.021738-0.349337-0.048222-0.521426C22.605103,10.062001,22.168755,10.330536,21.684595,10.513115z"/>
		<path class="default" d="M23.020554,13.502759c-0.373339,0.418948-0.815777,0.812871-1.32255,1.177896
			c0,0,0.010332,0.375438,0.01243,0.39683c-0.042427,1.459289-1.568792,2.785424-3.890209,3.655129
			c-1.746401,0.654278-3.942762,1.050238-6.295779,1.050238c-2.838171,0-5.4504-0.575932-7.319931-1.486395
			c-1.770012-0.861998-2.874292-2.023861-2.874292-3.280725c0-0.013642-0.007749-0.460196-0.007749-0.460196
			c-0.513069-0.386901-0.956475-0.804072-1.32255-1.248205c0,0,0.011543,1.754978,0.014288,1.779437
			c0.035207,1.686856,1.304781,3.188937,3.364852,4.270589c2.068133,1.085886,4.932962,1.748045,8.145382,1.748045
			c2.550548,0,4.882701-0.41725,6.771106-1.132545c2.89287-1.095772,4.744375-2.890989,4.744375-4.957124
			C23.039927,14.981586,23.020554,13.502759,23.020554,13.502759z"/>
		<path class="default" d="M23.020554,19.908218v-1.416832c-0.373339,0.418947-0.815777,0.81287-1.32255,1.177895v0.335077
			c0,0.021875,0.010332,0.040361,0.01243,0.061752c-0.074345,2.557112-4.705206,4.705368-10.185988,4.705368
			c-5.525261,0-10.194223-2.182724-10.194223-4.76712c0-0.013641-0.006942-0.025024-0.007749-0.038424v-0.421772
			c-0.513069-0.386902-0.956475-0.804073-1.32255-1.248205v1.708401c0,0.025185,0.011543,0.046577,0.014288,0.071035
			c0.070551,3.380316,5.097919,6.018635,11.510234,6.018635c6.457763,0,11.515481-2.674805,11.515481-6.08967
			C23.039927,19.970213,23.025476,19.94091,23.020554,19.908218z"/>
		<path class="default" d="M19.68,2.710737c-2.385822,0-4.320002,1.93418-4.320002,4.320001c0,2.385879,1.934179,4.32,4.320002,4.32
			c2.385878,0,4.32-1.934121,4.32-4.32C24,4.644917,22.065878,2.710737,19.68,2.710737z M22.08498,7.505816h-1.929903v1.929902
			c0,0.262559-0.21246,0.47502-0.475077,0.47502c-0.26256,0-0.475021-0.212461-0.475021-0.47502V7.505816h-1.929901
			c-0.26256,0-0.475079-0.212461-0.475079-0.475078c0-0.262559,0.212519-0.47502,0.475079-0.47502h1.929901V4.625815
			c0-0.262558,0.212461-0.475078,0.475021-0.475078c0.262617,0,0.475077,0.21252,0.475077,0.475078v1.929903h1.929903
			c0.262558,0,0.475019,0.212461,0.475019,0.47502C22.559999,7.293355,22.347538,7.505816,22.08498,7.505816z"/>
	</g>
	<g class="default">
		<path class="default" d="M21.684595,10.513115c-0.305275,2.465508-4.827833,4.501875-10.162443,4.50252
			C5.997874,15.01499,1.330236,12.832665,1.330236,10.249853c0-2.582755,4.667637-4.765079,10.191916-4.765724
			c1.556894,0.000176,3.040137,0.178594,4.375665,0.485449c0.054257-0.453516,0.167226-0.886113,0.35086-1.285313
			c-1.435723-0.33375-3.029532-0.522305-4.724239-0.522656V4.161551c0,0-0.001524,0.000059-0.002285,0.000059
			c0,0-0.001465-0.000059-0.002227-0.000059V4.16161C5.064358,4.162957,0.007658,6.837118,0.007658,10.249853
			s5.0567,6.086954,11.512267,6.088301v0.000059c0.000762,0,0.001523-0.000059,0.001523-0.000059
			c0.001465,0,0.002227,0.000059,0.002227,0.000059l0.000762-0.000059c6.455626-0.001347,11.512266-2.675567,11.512266-6.088301
			c0-0.176309-0.021738-0.349337-0.048222-0.521426C22.605103,10.062001,22.168755,10.330536,21.684595,10.513115z"/>
		<path class="default" d="M23.020554,13.502759c-0.373339,0.418948-0.815777,0.812871-1.32255,1.177896
			c0,0,0.010332,0.375438,0.01243,0.39683c-0.042427,1.459289-1.568792,2.785424-3.890209,3.655129
			c-1.746401,0.654278-3.942762,1.050238-6.295779,1.050238c-2.838171,0-5.4504-0.575932-7.319931-1.486395
			c-1.770012-0.861998-2.874292-2.023861-2.874292-3.280725c0-0.013642-0.007749-0.460196-0.007749-0.460196
			c-0.513069-0.386901-0.956475-0.804072-1.32255-1.248205c0,0,0.011543,1.754978,0.014288,1.779437
			c0.035207,1.686856,1.304781,3.188937,3.364852,4.270589c2.068133,1.085886,4.932962,1.748045,8.145382,1.748045
			c2.550548,0,4.882701-0.41725,6.771106-1.132545c2.89287-1.095772,4.744375-2.890989,4.744375-4.957124
			C23.039927,14.981586,23.020554,13.502759,23.020554,13.502759z"/>
		<path class="default" d="M23.020554,19.908218v-1.416832c-0.373339,0.418947-0.815777,0.81287-1.32255,1.177895v0.335077
			c0,0.021875,0.010332,0.040361,0.01243,0.061752c-0.074345,2.557112-4.705206,4.705368-10.185988,4.705368
			c-5.525261,0-10.194223-2.182724-10.194223-4.76712c0-0.013641-0.006942-0.025024-0.007749-0.038424v-0.421772
			c-0.513069-0.386902-0.956475-0.804073-1.32255-1.248205v1.708401c0,0.025185,0.011543,0.046577,0.014288,0.071035
			c0.070551,3.380316,5.097919,6.018635,11.510234,6.018635c6.457763,0,11.515481-2.674805,11.515481-6.08967
			C23.039927,19.970213,23.025476,19.94091,23.020554,19.908218z"/>
		<path class="default" d="M19.68,2.710737c-2.385822,0-4.320002,1.93418-4.320002,4.320001c0,2.385879,1.934179,4.32,4.320002,4.32
			c2.385878,0,4.32-1.934121,4.32-4.32C24,4.644917,22.065878,2.710737,19.68,2.710737z M22.08498,7.505816h-1.929903v1.929902
			c0,0.262559-0.21246,0.47502-0.475077,0.47502c-0.26256,0-0.475021-0.212461-0.475021-0.47502V7.505816h-1.929901
			c-0.26256,0-0.475079-0.212461-0.475079-0.475078c0-0.262559,0.212519-0.47502,0.475079-0.47502h1.929901V4.625815
			c0-0.262558,0.212461-0.475078,0.475021-0.475078c0.262617,0,0.475077,0.21252,0.475077,0.475078v1.929903h1.929903
			c0.262558,0,0.475019,0.212461,0.475019,0.47502C22.559999,7.293355,22.347538,7.505816,22.08498,7.505816z"/>
	</g>
</g>
</svg>
