<svg version="1.1" id="icons" xmlns="http://www.w3.org/2000/svg" xmlns:xlink="http://www.w3.org/1999/xlink" x="0px" y="0px"
	 viewBox="0 0 24 27.110001" style="enable-background:new 0 0 24 27.110001;" xml:space="preserve">
<style type="text/css">
	.st0{fill:none;stroke:#000000;stroke-width:1.25;stroke-miterlimit:10;}
	.st1{stroke:#000000;stroke-miterlimit:10;}
	.st2{stroke:#000000;stroke-width:1.25;stroke-miterlimit:10;}
</style>
<g class="default">
	<g class="default">
		<path class="default" d="M17.844727,14.470581l-5.101318,0.000122l0.000183-5.101257
			c0-0.273743-0.221924-0.495667-0.495667-0.495667H11.75238c-0.273743,0-0.495605,0.221924-0.495605,0.495667l-0.000183,5.101318
			l-5.101318,0.000122c-0.273743,0-0.495667,0.221924-0.495667,0.495667v0.495483c0,0.273804,0.221924,0.495667,0.495667,0.495667
			l5.101318-0.000122l-0.000183,5.101257c0,0.273743,0.221924,0.495667,0.495667,0.495667h0.495544
			c0.273743,0,0.495605-0.221863,0.495605-0.495605l0.000183-5.101379l5.101318-0.000122
			c0.273743,0,0.495667-0.221924,0.495667-0.495667v-0.495483C18.340393,14.692505,18.118469,14.470581,17.844727,14.470581z"/>
		<path class="default" d="M12,4.805313c5.739475,0,10.408854,4.669392,10.408854,10.408854S17.739475,25.62302,12,25.62302
			S1.591146,20.953629,1.591146,15.214167S6.260524,4.805313,12,4.805313 M12,3.318333
			c-6.569881,0-11.895833,5.325942-11.895833,11.895833S5.430119,27.110001,12,27.110001s11.895834-5.325943,11.895834-11.895834
			S18.569881,3.318333,12,3.318333L12,3.318333z"/>
	</g>
	<g class="default">
		<path class="default" d="M17.844727,14.470581l-5.101318,0.000122l0.000183-5.101257
			c0-0.273743-0.221924-0.495667-0.495667-0.495667H11.75238c-0.273743,0-0.495605,0.221924-0.495605,0.495667l-0.000183,5.101318
			l-5.101318,0.000122c-0.273743,0-0.495667,0.221924-0.495667,0.495667v0.495483c0,0.273804,0.221924,0.495667,0.495667,0.495667
			l5.101318-0.000122l-0.000183,5.101257c0,0.273743,0.221924,0.495667,0.495667,0.495667h0.495544
			c0.273743,0,0.495605-0.221863,0.495605-0.495605l0.000183-5.101379l5.101318-0.000122
			c0.273743,0,0.495667-0.221924,0.495667-0.495667v-0.495483C18.340393,14.692505,18.118469,14.470581,17.844727,14.470581z"/>
		<path class="default" d="M12,4.805313c5.739475,0,10.408854,4.669392,10.408854,10.408854S17.739475,25.62302,12,25.62302
			S1.591146,20.953629,1.591146,15.214167S6.260524,4.805313,12,4.805313 M12,3.318333
			c-6.569881,0-11.895833,5.325942-11.895833,11.895833S5.430119,27.110001,12,27.110001s11.895834-5.325943,11.895834-11.895834
			S18.569881,3.318333,12,3.318333L12,3.318333z"/>
	</g>
</g>
</svg>
