<svg version="1.1" id="icons" xmlns="http://www.w3.org/2000/svg" xmlns:xlink="http://www.w3.org/1999/xlink" x="0px" y="0px"
	 viewBox="0 0 24 27.110001" style="enable-background:new 0 0 24 27.110001;" xml:space="preserve">
<style type="text/css">
	.st0{fill:none;stroke:#000000;stroke-width:1.25;stroke-miterlimit:10;}
	.st1{stroke:#000000;stroke-miterlimit:10;}
	.st2{stroke:#000000;stroke-width:1.25;stroke-miterlimit:10;}
</style>
<g>
	<path d="M22.478298,14.749521c0.014706,0.279416-0.110296,0.477949-0.375008,0.595597l-10.588402,5.735385
		c-0.117649,0.058825-0.235298,0.088238-0.352947,0.088238s-0.220592-0.029413-0.308828-0.088238L0.352947,15.345119
		C0.117649,15.22747,0,15.021585,0,14.727462c0-0.294122,0.132355-0.500008,0.397065-0.617657l2.205917-1.102959l1.500024,0.838248
		l-1.897089,0.926486l8.956024,4.897136l9.088379-4.897136l-1.764734-0.882367l1.500025-0.838248l2.11768,1.05884
		C22.338589,14.256866,22.463591,14.470105,22.478298,14.749521z"/>
	<path d="M22.478298,19.690775c0.014706,0.279417-0.110296,0.492657-0.375008,0.639717l-10.588402,5.691267
		c-0.117649,0.058825-0.235298,0.088236-0.352947,0.088236s-0.220592-0.029411-0.308828-0.088236L0.352947,20.286373
		C0.117649,20.168724,0,19.962839,0,19.668716s0.132355-0.500008,0.397065-0.617657l2.073562-0.970604l1.500024,0.838249
		l-1.764734,0.79413l8.956024,4.897137l9.088379-4.897137l-1.676497-0.79413l1.544142-0.838249l1.985325,0.970604
		C22.338589,19.19812,22.463591,19.41136,22.478298,19.690775z"/>
	<path d="M19.77108,10.574651c-0.350189,0-0.68527-0.054688-1.010759-0.134826l-7.465995,4.022927L2.338301,9.565616
		l9.088379-4.544189l4.190554,2.12624c-0.050725-0.262067-0.081516-0.531488-0.081516-0.808377
		c0-0.257185,0.031825-0.506269,0.075714-0.750816l-3.875923-1.978834c-0.205943-0.117649-0.426535-0.117649-0.661776,0
		l-10.58846,5.33832c-0.235298,0.117649-0.3603,0.316181-0.375006,0.595597s0.110296,0.492655,0.375006,0.639716l10.456105,5.691267
		c0.117649,0.058825,0.235298,0.088236,0.352947,0.088236c0.117648,0,0.23524-0.029411,0.352889-0.088236l10.588402-5.691267
		c0.235298-0.147061,0.353004-0.3603,0.353004-0.639716c0-0.019991-0.012867-0.032169-0.014246-0.051356
		C21.826202,10.157882,20.85129,10.574651,19.77108,10.574651z"/>
	<path d="M19.771097,2.103928c-2.339077,0-4.235361,1.896285-4.235361,4.235361c0,2.339134,1.896284,4.235362,4.235361,4.235362
		c2.339134,0,4.235361-1.896228,4.235361-4.235362C24.006458,4.000213,22.110231,2.103928,19.771097,2.103928z M22.12896,6.805059
		h-1.892092V8.69715c0,0.257415-0.208298,0.465714-0.465771,0.465714c-0.257414,0-0.465712-0.208299-0.465712-0.465714V6.805059
		h-1.892092c-0.257414,0-0.465771-0.208298-0.465771-0.46577c0-0.257414,0.208357-0.465713,0.465771-0.465713h1.892092V3.981485
		c0-0.257414,0.208298-0.46577,0.465712-0.46577c0.257473,0,0.465771,0.208356,0.465771,0.46577v1.892091h1.892092
		c0.257414,0,0.465712,0.208298,0.465712,0.465713C22.594671,6.596761,22.386374,6.805059,22.12896,6.805059z"/>
</g>
</svg>
