<svg version="1.1" id="icons" xmlns="http://www.w3.org/2000/svg" xmlns:xlink="http://www.w3.org/1999/xlink" x="0px" y="0px"
	 viewBox="0 0 24 27" style="enable-background:new 0 0 24 27;" xml:space="preserve">
<path d="M22.21875,11.164294c-1.1875-1.25-2.625-1.96875-4.3125-2.15625c-0.5625-1.4375-1.40625-2.554688-2.531251-3.351563
	s-2.515625-1.195312-4.171875-1.195312c-2.125,0-3.890625,0.703125-5.296875,2.109375s-2.171875,3.171875-2.296875,5.296875
	c-1.0625,0.34375-1.929687,1-2.601562,1.96875s-1.007812,2.046875-1.007812,3.234374c0,1.46875,0.5,2.742188,1.5,3.820312
	s2.1875,1.617188,3.5625,1.617188h0.462646H5.71875h12.375c1.75-0.0625,3.171875-0.796875,4.265625-2.203125
	S24,17.336168,24,15.617419S23.40625,12.414294,22.21875,11.164294z M21.328125,19.320543
	c-0.8125,1.125-1.828125,1.6875-3.046875,1.6875h-0.1875h-12.375H5.525146H5.0625c-0.96875,0-1.8125-0.390625-2.53125-1.171875
	s-1.078125-1.703125-1.078125-2.765625c0-0.9375,0.289062-1.781249,0.867187-2.531249s1.289062-1.203125,2.132813-1.359375
	l0.703125-0.09375L5.0625,12.383044c0-1.84375,0.5625-3.375,1.6875-4.59375s2.609375-1.828125,4.453125-1.828125
	c2.78125,0,4.59375,1.328125,5.437501,3.984375l0.140625,0.515625h0.5625c1.40625,0.03125,2.625,0.546875,3.65625,1.546875
	s1.546875,2.203125,1.546875,3.609375C22.546875,16.961168,22.140625,18.195543,21.328125,19.320543z"/>
</svg>
